<svg xmlns="http://www.w3.org/2000/svg" xmlns:xlink="http://www.w3.org/1999/xlink" width="267.806" height="79.789" viewBox="0 0 267.806 79.789">
  <defs>
    <clipPath id="clip-path">
      <rect id="사각형_1393" data-name="사각형 1393" width="267.806" height="79.789" fill="#f8be18"/>
    </clipPath>
  </defs>
  <g id="그룹_3821" data-name="그룹 3821" transform="translate(-10459 355)">
    <path id="패스_1993" data-name="패스 1993" d="M12.835,69.9V81.248H7.141V69.9H0v30.357H7.141V87.285h5.694v12.967h7.141V69.9Z" transform="translate(10459 -387.722)" fill="#fff"/>
    <g id="그룹_3820" data-name="그룹 3820" transform="translate(10459 -355)" clip-path="url(#clip-path)">
      <path id="패스_1986" data-name="패스 1986" d="M44.505,90.26c.043-3.188.934-5.017,2.592-6.165s3.527-1.488,6.417-1.488c5.653,0,8.161,1.913,8.161,6.8v11.82c0,1.743,0,3.954.807,4.974H55.852a8.977,8.977,0,0,1-.383-2.636h-.084a5.843,5.843,0,0,1-5.4,3.231c-3.911,0-6.12-2.041-6.12-7.015,0-2.721,1.105-4.889,2.8-5.867s4.25-1.36,6.163-1.871c2.083-.6,2.465-.893,2.465-2.636,0-1.4-.638-2.3-2.168-2.3-1.912,0-2.465,1.148-2.508,3.146Zm7.989,11.777c1.488,0,2.763-.808,2.763-3.146,0-1.913.043-3.061.043-4.039-2.168,1.148-3.1,1.19-3.74,1.7A2.8,2.8,0,0,0,50.5,99.1c0,1.828.679,2.934,2,2.934" transform="translate(-20.537 -38.673)" fill="#fff"/>
      <path id="패스_1987" data-name="패스 1987" d="M85.256,83.2h6.63v2.721h.085A5.883,5.883,0,0,1,97.5,82.607c3.91,0,5.992,1.956,5.992,6.377V106.2H96.6V90.515c0-1.658-.679-2.636-2-2.636s-2.465,1.021-2.465,3.274V106.2H85.256Z" transform="translate(-39.913 -38.673)" fill="#fff"/>
      <path id="패스_1988" data-name="패스 1988" d="M126.726,69.9h6.885V79.76h.086a5.308,5.308,0,0,1,5.142-3.1c5.61,0,6.673,5.145,6.673,12.287,0,8.588-2.507,11.9-7.1,11.9a4.859,4.859,0,0,1-4.973-3.4h-.085v2.806h-6.629Zm9.222,25.935c2.55,0,2.678-3.529,2.678-7.228,0-4.209-.128-6.93-2.635-6.93-2.337,0-2.508,3.146-2.508,7.228,0,4.464.425,6.93,2.465,6.93" transform="translate(-59.328 -32.722)" fill="#fff"/>
      <path id="패스_1989" data-name="패스 1989" d="M166.758,94.766c0-6.888,1.53-12.16,9.477-12.16,8.372,0,9.477,5.145,9.477,12.032s-1.53,12.16-9.477,12.16c-8.415,0-9.477-5.145-9.477-12.032m9.52-7.653c-2.04,0-2.635,2-2.635,7.568,0,5.613.6,7.611,2.635,7.611,2.124,0,2.55-1.913,2.55-7.568,0-5.7-.426-7.611-2.55-7.611" transform="translate(-78.069 -38.673)" fill="#fff"/>
      <path id="패스_1990" data-name="패스 1990" d="M208.149,69.9h6.885V85.5h.085l5.142-8.248h7.565l-6.588,9.268,7.4,13.733h-7.522l-4.293-8.673L215.033,94v6.25h-6.885Z" transform="translate(-97.446 -32.722)" fill="#fff"/>
      <path id="패스_1991" data-name="패스 1991" d="M309.982,1.6c-5.506-3.63-6.741.072-6.741.072,11.054,1.579,10.523,18.579,7.753,31.813q-1.223,5.838-2.967,11.536a117.907,117.907,0,0,1-6.048,15.8c-1.783,3.778-3.931,9.674-7.176,12.377-1.071.891-3.688,2.118-4-.2-.6-4.389.537-12.462,1.223-18.014a86.183,86.183,0,0,0,.883-15.236c-.113-2.112-.174-8.6-3.281-9.137-2.838-.486-3.534,1.3-3.534,1.3s-16.861,23.245-21.939,29.881c-.751.982-1.891,2.883-3.373,2.593-1.575-.309-1.793-2.47-1.6-3.737,1.372-8.943,4.309-17.644,5.462-26.592,1.871-14.5-8.9-8.9-8.9-8.9a12.93,12.93,0,0,1,2.6,3c1.061,1.759-1.535,17.047-2.443,22.891-.991,6.379-3.344,17.84,4.453,17.355a8.252,8.252,0,0,0,4.491-2.1,27.359,27.359,0,0,0,4.457-4.828c2.388-3.242,17.524-26.231,17.734-26.192,2.672.491.173,19.666-.059,23.925-.227,4.141-.87,8.317-.349,12.461a17.589,17.589,0,0,0,1.182,5.354c.591,1.15,1.7,2.694,3.137,2.763,11.145.533,20.134-29.334,23.21-45.387s1.328-29.169-4.178-32.8" transform="translate(-119.279 0)" fill="#f8be18"/>
      <path id="패스_1992" data-name="패스 1992" d="M378.936,93.628s-2.11,16.175,2.9,16.169c3.961-.006,6.757-6.021,7.082-6.82s-1.08,8.58,6.023,3.4c2.842-2.07,10.615-13.2,10.615-13.2s-6.4,17.257,5.141,13.736,26.217-22.691,27.409-26.36c0,0-9.5,10.484-12.2,12.842s-16.236,14.952-18.786,10.171a18.474,18.474,0,0,1,.892-6.085s2.058,2.366,5.8.148a25.786,25.786,0,0,0,6.227-5.717,17.361,17.361,0,0,0,4.1-7.507,5.418,5.418,0,0,0-3.439-5.964,4.668,4.668,0,0,0-5.205.936,38.8,38.8,0,0,0-3.857,3.481c-5.034,5.362-18.726,20.768-18.726,20.768s3.366-9.536,3.949-12.132.478-8.554-5.042-8.12c.215-.015.64.636.751.775,1.1,1.377.837,2.994.388,4.562-.339,1.186-.689,2.369-1.072,3.542-1.435,4.379-3.963,8.618-6.151,12.656-.4.743-1.419,2.156-2.36,2.32-.83.144-.907-1.81-.974-2.724-.336-4.53,2.106-17.967,2.106-17.967l.263-1.8c.011-.066-.365-.076-.774-.065a2.092,2.092,0,0,0-.193-.608c-.737-1.418-2.882-2.294-4.372-2.445-3.421-.346-6.406,2.181-8.513,4.577a30.984,30.984,0,0,0-6.124,10.565c-.975,2.982-1.614,6.918-.257,9.89a3.031,3.031,0,0,0,3.631,1.967,9.464,9.464,0,0,0,4.151-3.1,32.3,32.3,0,0,0,4.086-6.741c.727-1.509,1.471-3.008,2.216-4.508l.321-.642m37.176-9.572c4.513-3.687,7.106-1.743,5.547,1.786-1.906,4.313-5.225,8.256-9.816,9.774a21.227,21.227,0,0,1-3.561.648s3.317-8.52,7.83-12.207m-41.006,11.13a53.209,53.209,0,0,1-4.521,6.631,4.888,4.888,0,0,1-1.808,1.453c-.864.34-1.652-.506-1.76-1.287-.678-4.889,2.655-10.364,5.94-13.745a13.291,13.291,0,0,1,4.958-3.445,4.054,4.054,0,0,1,2.628.051c.352.14.8.391,1.259.605-.17.185-.339.387-.539.585-.437.435-5.392,7.926-6.157,9.151" transform="translate(-170.294 -36.526)" fill="#f8be18"/>
    </g>
  </g>
</svg>
